<svg version="1.1" xmlns="http://www.w3.org/2000/svg" xmlns:svg="http://www.w3.org/2000/svg">
  <g>
    <path d="M112.6 0h4.6v54.7h-4.6z" style="fill:#e20e5a" />
    <path style="fill:#31006f" d="M1 .2c.4-.1.8-.1 1.3-.2h1.4s.8 0 1.3.1c.5 0 .9.1 1.3.2v16.9c.6-1.1 1.6-2 3-2.8 1.4-.8 3-1.2 4.9-1.2 1.6 0 3.1.3 4.5.8s2.6 1.4 3.6 2.5 1.8 2.5 2.3 4.3c.6 1.7.8 3.8.8 6.1 0 4.7-1.3 8.4-4 11-2.7 2.7-6.5 4-11.4 4-1.6 0-3.2-.2-4.8-.5-1.7-.3-3.1-.6-4.2-1V.2zm5.3 36.5c.6.2 1.3.4 2.1.5.7.1 1.5.1 2.3.1 1.3 0 2.5-.2 3.7-.6 1.1-.4 2.1-1 2.9-1.9.8-.8 1.5-1.9 1.9-3.2.5-1.3.7-2.8.7-4.6 0-3-.5-5.2-1.5-6.9-1-1.6-2.7-2.5-5.1-2.5-.8 0-1.6.1-2.4.4-.8.3-1.5.7-2.2 1.3-.7.6-1.2 1.4-1.6 2.3-.4 1-.6 2.2-.6 3.5v11.6zm37.9-13.6c0-2.1-.5-3.6-1.6-4.4-1.1-.8-2.6-1.2-4.6-1.2-1.2 0-2.4.1-3.5.3-1.1.2-2.1.5-3.2.8-.7-1.2-1-2.6-1-4.2 1.2-.4 2.5-.7 4-.9 1.5-.2 2.9-.3 4.2-.3 3.6 0 6.3.8 8.1 2.4 1.8 1.6 2.8 4.2 2.8 7.8v17.1c-1.2.3-2.8.6-4.5.9s-3.6.5-5.4.5c-1.7 0-3.3-.2-4.7-.5-1.4-.3-2.6-.8-3.6-1.5s-1.7-1.6-2.3-2.7c-.5-1.1-.8-2.4-.8-4 0-1.5.3-2.9.9-4 .6-1.2 1.5-2.1 2.5-2.9 1.1-.8 2.3-1.3 3.7-1.7 1.4-.4 2.8-.6 4.4-.6 1.1 0 2.1 0 2.8.1.7.1 1.3.1 1.8.2v-1.2zm0 5.2c-.5-.1-1.2-.1-2-.2-.9-.1-1.6-.1-2.1-.1-2.2 0-3.9.4-5 1.2-1.2.8-1.7 2.1-1.7 3.7 0 1.1.2 1.9.6 2.5.4.6.9 1.1 1.5 1.4.6.3 1.2.5 1.9.6.7.1 1.4.1 2 .1.8 0 1.7 0 2.5-.1.9-.1 1.6-.2 2.3-.4v-8.7zm28.4 8.1c.3.5.5 1.1.7 1.9.2.7.3 1.5.4 2.3-2.1.8-4.5 1.2-7.2 1.2-4.6 0-8-1.3-10.3-3.9-2.3-2.6-3.5-6.1-3.5-10.4 0-2 .3-3.9.9-5.7.6-1.7 1.4-3.3 2.5-4.5 1.1-1.3 2.5-2.3 4.2-3 1.7-.7 3.6-1.1 5.8-1.1 1.5 0 2.8.1 3.9.3 1.1.2 2.2.5 3.3.9 0 .6-.1 1.3-.2 2.1s-.4 1.5-.7 2.1c-1.7-.6-3.7-.9-6-.9-2.7 0-4.8.9-6.1 2.7-1.4 1.8-2 4.2-2 7.2 0 3.4.8 5.9 2.3 7.5 1.5 1.6 3.6 2.4 6.3 2.4 1.1 0 2.1-.1 3-.2.9-.3 1.8-.5 2.7-.9m4.2-22.6c.4-.1.7-.1 1.1-.2.4 0 .8-.1 1.1-.1.4 0 .7 0 1.1.1.4 0 .8.1 1.1.2 0 .1.1.3.1.7.1.4.1.8.2 1.2s.1.8.2 1.2c.1.4.1.6.1.7.4-.6.8-1.1 1.3-1.7.5-.5 1.1-1 1.8-1.4s1.5-.8 2.3-1c.9-.2 1.8-.4 2.9-.4 1.6 0 3.1.3 4.5.8s2.5 1.4 3.5 2.5 1.7 2.5 2.3 4.3c.6 1.7.8 3.8.8 6.1 0 4.7-1.3 8.4-3.8 11-2.5 2.7-6.1 4-10.8 4-.8 0-1.6-.1-2.4-.2-.8-.1-1.5-.3-2.1-.4v13.5c-.4.1-.9.1-1.4.2-.5 0-.9.1-1.3.1s-.8 0-1.3-.1c-.5 0-.9-.1-1.3-.2V13.8zM82 36.7c.7.2 1.4.4 2.1.5.7.1 1.6.2 2.8.2 1.3 0 2.5-.2 3.5-.6 1.1-.4 2-1 2.7-1.9.8-.9 1.4-1.9 1.8-3.2.4-1.3.7-2.8.7-4.6 0-2.8-.5-5.1-1.6-6.8-1-1.7-2.8-2.5-5.2-2.5-.9 0-1.7.2-2.6.5-.8.3-1.5.8-2.2 1.4-.6.6-1.2 1.5-1.5 2.4-.4 1-.6 2.1-.6 3.5v11.1zm54.8-14.1l-.6.3c-.2.1-.5.2-.8.3-.3.1-.6.2-1 .2-.4.1-.8.1-1.2.1-.8 0-1.5-.1-2-.4-.6-.3-1.1-.6-1.5-1.1-.4-.5-.7-1-.9-1.6-.2-.6-.3-1.2-.3-1.9s.1-1.3.3-2c.2-.6.4-1.2.8-1.7s.8-.9 1.4-1.2c.5-.3 1.2-.4 1.9-.4.5 0 1 .1 1.4.3.4.2.7.4.9.8v-.7c.3-.1.5-.2.8-.2.3 0 .6.1.9.2v3.9c-.3.1-.6.2-.9.2-.3 0-.6-.1-.9-.2V17c0-.6-.2-1.1-.5-1.4-.4-.3-.8-.5-1.3-.5-.4 0-.8.1-1.1.3-.3.2-.5.5-.7.8s-.3.7-.4 1.1c-.1.4-.1.8-.1 1.2 0 1 .3 1.8.7 2.3.5.6 1.1.8 1.9.8.3 0 .7 0 1-.1.3-.1.6-.2.8-.3.2-.1.5-.3.7-.4.2-.2.5-.4.7-.6v2.4zm5.9 1c-.8 0-1.5-.1-2.1-.4-.6-.3-1.1-.7-1.5-1.2s-.7-1-.9-1.6c-.2-.6-.3-1.2-.3-1.9 0-.6.1-1.2.3-1.9s.5-1.2.9-1.6c.4-.5.9-.9 1.5-1.2.6-.3 1.3-.4 2.1-.4s1.5.2 2.1.4c.6.3 1.1.7 1.5 1.2.4.5.7 1 .9 1.6.2.6.3 1.2.3 1.9 0 .6-.1 1.2-.3 1.9-.2.6-.5 1.2-.9 1.6s-.9.9-1.5 1.2c-.6.3-1.3.4-2.1.4m0-1.8c.5 0 .8-.1 1.1-.3.3-.2.5-.5.7-.8.2-.3.3-.7.4-1.1.1-.4.1-.8.1-1.1 0-.3 0-.7-.1-1.1-.1-.4-.2-.7-.4-1.1-.2-.3-.4-.6-.7-.8-.3-.2-.7-.3-1.1-.3-.5 0-.8.1-1.1.3-.3.2-.5.5-.7.8-.2.3-.3.7-.4 1.1s-.1.7-.1 1.1c0 .3 0 .7.1 1.1.1.4.2.8.4 1.1s.4.6.7.8c.3.2.6.3 1.1.3m6.6-6.6h-1.1c-.1-.3-.1-.5-.1-.8s.1-.5.1-.8h3.5v6.2c0 .6.1 1.1.3 1.5.2.3.6.5 1.2.5.2 0 .4 0 .7-.1.2-.1.4-.2.6-.4s.3-.5.5-.8.2-.8.2-1.3v-3.9h-1.1c-.1-.3-.2-.5-.2-.8s0-.5.2-.8h3.5v8.1h1.1c.1.3.1.5.1.8 0 .3 0 .5-.1.8h-3.2l-.1-1.1c-.2.3-.6.7-1 .9-.5.3-1.1.4-1.8.4-1.1 0-1.9-.3-2.4-.9-.6-.6-.8-1.5-.8-2.6v-4.9zm11.2 6.5v-6.5h-1.1c-.1-.3-.1-.5-.1-.8s.1-.5.1-.8h3.2l.1 1.1c.2-.3.6-.7 1-.9.5-.3 1.1-.4 1.8-.4 1.1 0 1.9.3 2.4.9.6.6.8 1.5.8 2.6v4.8h1.1c.1.3.1.5.1.8s0 .5-.1.8h-4.5c-.1-.3-.1-.5-.1-.8s0-.5.1-.8h1v-4.6c0-.6-.1-1.1-.3-1.5-.2-.3-.6-.5-1.2-.5-.2 0-.4 0-.7.1-.2.1-.4.2-.6.4-.2.2-.3.5-.5.8-.1.3-.2.8-.2 1.3v4h1c.1.3.2.5.2.8s-.1.5-.2.8h-4.5c-.1-.3-.1-.5-.1-.8s.1-.5.1-.8h1.2zm10.3-1.8c.2-.1.5-.2.8-.2h.4c.1 0 .3.1.4.2v.3c0 .2.1.4.2.6.1.2.3.4.6.5.2.2.5.3.8.4.3.1.6.1 1 .1.2 0 .5 0 .7-.1.2 0 .4-.1.6-.2.2-.1.3-.2.4-.3.1-.1.1-.3.1-.5s0-.4-.1-.5c-.1-.1-.2-.3-.4-.4-.2-.1-.4-.2-.7-.3-.3-.1-.7-.2-1.2-.3-.4-.1-.7-.2-1.1-.3-.4-.1-.8-.3-1.1-.5-.3-.2-.6-.5-.9-.8-.2-.3-.3-.7-.3-1.3 0-.6.1-1 .3-1.4.2-.4.5-.7.9-.9.4-.2.7-.4 1.2-.5.4-.1.8-.2 1.2-.2.6 0 1.1.1 1.5.3.4.2.7.4.9.6v-.5c.1-.1.3-.1.4-.1h.4c.3 0 .5.1.8.2v3.1c-.3.1-.5.2-.8.2-.3 0-.5-.1-.8-.2v-.3c0-.4-.2-.8-.5-1.1-.4-.3-.8-.5-1.5-.5-.6 0-1 .1-1.3.3-.3.2-.4.5-.4.8 0 .2 0 .3.1.4 0 .1.2.2.3.3.2.1.4.2.7.3.3.1.7.2 1.3.3l1.2.3c.4.1.8.3 1.1.5.3.2.6.5.8.9.2.4.3.9.3 1.5 0 .5-.1.9-.3 1.3-.2.4-.5.7-.8.9-.3.2-.7.4-1.2.5-.4.1-.9.2-1.4.2-.4 0-.7 0-.9-.1-.3 0-.5-.1-.7-.2l-.6-.3c-.2-.1-.4-.2-.6-.4v.5c-.1.1-.3.1-.4.2h-.8c-.1 0-.3-.1-.4-.2v-3.1zm17.5 2.9c-.4.2-.9.4-1.5.6-.6.2-1.2.3-1.8.3-.9 0-1.6-.1-2.3-.4-.6-.3-1.2-.7-1.6-1.2-.4-.5-.7-1-.9-1.6-.2-.6-.3-1.2-.3-1.9 0-.6.1-1.3.3-1.9s.4-1.2.8-1.6c.4-.5.8-.9 1.4-1.2.6-.3 1.2-.4 2-.4s1.5.1 2.1.4c.5.3 1 .7 1.3 1.1.3.5.6 1 .7 1.6.1.6.2 1.2.2 1.7v.9h-6.2c0 .4.1.7.2 1 .1.3.3.6.5.8.2.2.5.4.8.6.3.1.6.2 1 .2.6 0 1.2-.1 1.7-.3.5-.2 1-.4 1.6-.7v2zm-2-5.2c0-.8-.2-1.4-.5-1.8-.3-.4-.8-.6-1.4-.6-.6 0-1 .2-1.3.7-.3.4-.5 1-.6 1.8h3.8zm4.3 4.1v-11h-1c-.1-.3-.2-.5-.2-.8 0-.3 0-.5.2-.8h3.4v12.6h1c.1.3.1.5.1.8s0 .5-.1.8h-4.5c-.1-.3-.2-.5-.2-.8s0-.5.2-.8h1.1zm5.3 0v-11h-1c-.1-.3-.2-.5-.2-.8 0-.3 0-.5.2-.8h3.4v12.6h1c.1.3.1.5.1.8s0 .5-.1.8h-4.5c-.1-.3-.2-.5-.2-.8s0-.5.2-.8h1.1zm5.4 0v-6.5h-1c-.1-.3-.2-.5-.2-.8s.1-.5.2-.8h3.4v8.1h1c.1.3.2.5.2.8 0 .3-.1.5-.2.8h-4.5c-.1-.3-.2-.5-.2-.8 0-.3.1-.5.2-.8h1.1zm.9-9.4c-.4 0-.7-.1-1-.4-.3-.3-.4-.6-.4-1.1 0-.4.1-.8.4-1.1.3-.3.6-.4 1-.4s.7.1 1 .4c.3.3.4.6.4 1.1 0 .4-.1.8-.4 1.1-.3.2-.6.4-1 .4m4.4 9.4v-6.5h-1.1c-.1-.3-.2-.5-.2-.8s0-.5.2-.8h3.2l.1 1.1c.2-.3.6-.7 1-.9.5-.3 1.1-.4 1.8-.4 1.1 0 1.9.3 2.4.9.6.6.8 1.5.8 2.6v4.8h1.1c.1.3.1.5.1.8s0 .5-.1.8h-4.5c-.1-.3-.1-.5-.1-.8s0-.5.1-.8h1v-4.6c0-.6-.1-1.1-.3-1.5-.2-.3-.6-.5-1.2-.5-.2 0-.4 0-.7.1-.2.1-.4.2-.6.4-.2.2-.3.5-.5.8-.1.3-.2.8-.2 1.3v4h1c.1.3.2.5.2.8s-.1.5-.2.8h-4.5c-.1-.3-.2-.5-.2-.8s0-.5.2-.8h1.2zm10.8 2.1c.2.1.5.3.7.4.3.1.5.2.8.4l.9.3c.3.1.7.1 1.1.1.4 0 .7 0 1-.1.3-.1.6-.2.8-.4.2-.2.4-.5.5-.9.1-.4.2-.9.2-1.5-.3.5-.7.8-1.1 1-.4.2-.9.3-1.4.3-.8 0-1.5-.2-2-.5s-1-.7-1.3-1.2c-.3-.5-.5-1-.7-1.6-.1-.6-.2-1.2-.2-1.8 0-.7.1-1.4.3-2 .2-.6.5-1.1.8-1.6.4-.4.8-.8 1.3-1 .5-.3 1.1-.4 1.8-.4.6 0 1.1.1 1.6.4.5.3.8.6 1 1l.1-1.1h3.3c.1.3.2.5.2.8 0 .3-.1.5-.2.8h-1.1v6.6c0 .9-.1 1.7-.3 2.3-.2.6-.5 1.1-1 1.5-.4.4-.9.7-1.5.8-.6.2-1.2.2-1.9.2-.8 0-1.5-.1-2.2-.3-.7-.2-1.2-.4-1.6-.6v-1.9zm4-2.2c.2 0 .4 0 .6-.1.2-.1.5-.3.7-.5.2-.2.4-.5.6-1 .2-.4.2-.9.2-1.6 0-.3 0-.6-.1-1 0-.4-.1-.7-.3-1.1s-.4-.6-.6-.9-.7-.4-1.1-.4c-.5 0-.9.1-1.2.4-.3.2-.5.5-.7.9-.2.3-.2.7-.3 1.1 0 .4-.1.7-.1 1 0 .4 0 .8.1 1.2.1.4.2.7.4 1 .2.3.4.5.7.6.4.3.7.4 1.1.4m-84.6 18.6l-.6.3c-.2.1-.5.2-.8.3-.3.1-.6.2-1 .2-.4.1-.8.1-1.2.1-.8 0-1.5-.1-2-.4-.6-.3-1.1-.6-1.5-1.1-.4-.5-.7-1-.9-1.6-.2-.6-.3-1.2-.3-1.9s.1-1.3.3-2c.2-.6.4-1.2.8-1.7s.8-.9 1.4-1.2c.5-.3 1.2-.4 1.9-.4.5 0 1 .1 1.4.3.4.2.7.4.9.8v-.7c.3-.1.5-.2.8-.2.3 0 .6.1.9.2v3.9c-.3.1-.6.2-.9.2-.3 0-.6-.1-.9-.2v-.6c0-.6-.2-1.1-.5-1.4-.4-.3-.8-.5-1.3-.5-.4 0-.8.1-1.1.3-.3.2-.5.5-.7.8s-.3.7-.4 1.1c-.1.4-.1.8-.1 1.2 0 1 .3 1.8.7 2.3.5.6 1.1.8 1.9.8.3 0 .7 0 1-.1.3-.1.6-.2.8-.3.2-.1.5-.3.7-.4.2-.2.5-.4.7-.6v2.5zm2.1-.8v-11h-1.1c-.1-.3-.1-.5-.1-.8 0-.3.1-.5.1-.8h3.5v5.3c.3-.3.6-.5 1-.7.4-.2.9-.3 1.5-.3 1.1 0 1.9.3 2.4.9s.8 1.5.8 2.6v4.8h1.1c.1.3.2.5.2.8s-.1.5-.2.8h-4.5c-.1-.3-.1-.5-.1-.8s0-.5.1-.8h1v-4.6c0-.6-.1-1.1-.3-1.5-.2-.3-.6-.5-1.2-.5-.2 0-.4 0-.7.1-.2.1-.4.2-.6.4-.2.2-.3.5-.5.8-.1.3-.2.8-.2 1.3v4h1c.1.3.2.5.2.8s-.1.5-.2.8h-4.5c-.1-.3-.1-.5-.1-.8s.1-.5.1-.8h1.3zm16.2.6c-.3.4-.7.6-1.1.9-.5.2-1 .3-1.7.3-.5 0-.9-.1-1.3-.2s-.8-.3-1.1-.6c-.3-.3-.5-.6-.7-.9-.2-.4-.3-.8-.3-1.3 0-.9.2-1.5.6-2 .4-.4.9-.8 1.5-1 .6-.2 1.3-.3 2-.4.7 0 1.4-.1 2-.2 0-.3 0-.6-.1-.8-.1-.3-.2-.5-.3-.6-.1-.2-.3-.3-.6-.4-.3-.1-.6-.1-1-.1-.6 0-1.1.1-1.6.3-.5.2-1.1.5-1.6.9V32l.6-.3c.2-.1.5-.2.8-.3.3-.1.7-.2 1-.3.4-.1.8-.1 1.3-.1h.7c.3 0 .5.1.8.1.3.1.6.2.8.3s.5.4.7.6c.2.3.4.6.5.9.1.4.2.8.2 1.3v5h1c.1.3.2.5.2.8 0 .3-.1.5-.2.8h-3.1V40zm-.1-3.6l-2 .2c-.6.1-1.1.2-1.3.5-.3.3-.4.7-.4 1.2 0 .3.1.6.4.9.2.3.6.4 1.1.4.3 0 .6 0 .9-.1.3-.1.5-.2.7-.4.2-.2.4-.3.5-.6.1-.2.2-.4.2-.7v-1.4zm5.1 3v-6.5H159c-.1-.3-.2-.5-.2-.8s0-.5.2-.8h3.2l.1 1.1c.2-.3.6-.7 1-.9.5-.3 1.1-.4 1.8-.4 1.1 0 1.9.3 2.4.9.6.6.8 1.5.8 2.6v4.8h1.1c.1.3.1.5.1.8s0 .5-.1.8H165c-.1-.3-.1-.5-.1-.8s0-.5.1-.8h1v-4.6c0-.6-.1-1.1-.3-1.5-.2-.3-.6-.5-1.2-.5-.2 0-.4 0-.7.1-.2.1-.4.2-.6.4-.2.2-.3.5-.5.8-.1.3-.2.8-.2 1.3v4h1c.1.3.2.5.2.8s-.1.5-.2.8H159c-.1-.3-.2-.5-.2-.8s0-.5.2-.8h1.1zm10.8 2.1c.2.1.5.3.7.4.3.1.5.2.8.4l.9.3c.3.1.7.1 1.1.1.4 0 .7 0 1-.1.3-.1.6-.2.8-.4.2-.2.4-.5.5-.9.1-.4.2-.9.2-1.5-.3.5-.7.8-1.1 1-.4.2-.9.3-1.4.3-.8 0-1.5-.2-2-.5s-1-.7-1.3-1.2c-.3-.5-.5-1-.7-1.6-.1-.6-.2-1.2-.2-1.8 0-.7.1-1.4.3-2 .2-.6.5-1.1.8-1.6.4-.4.8-.8 1.3-1 .5-.3 1.1-.4 1.8-.4.6 0 1.1.1 1.6.4.5.3.8.6 1 1l.1-1.1h3.3c.1.3.2.5.2.8 0 .3-.1.5-.2.8h-1.1v6.6c0 .9-.1 1.7-.3 2.3-.2.6-.5 1.1-1 1.5-.4.4-.9.7-1.5.8-.6.2-1.2.2-1.9.2-.8 0-1.5-.1-2.2-.3-.7-.2-1.2-.4-1.6-.6v-1.9zm4-2.3c.2 0 .4 0 .6-.1.2-.1.5-.3.7-.5.2-.2.4-.5.6-1 .2-.4.2-.9.2-1.6 0-.3 0-.6-.1-1 0-.4-.1-.7-.3-1.1s-.4-.6-.6-.9-.7-.4-1.1-.4c-.5 0-.9.1-1.2.4-.3.2-.5.5-.7.9-.2.3-.2.7-.3 1.1 0 .4-.1.7-.1 1 0 .4 0 .8.1 1.2.1.4.2.7.4 1 .2.3.4.5.7.6.4.3.7.4 1.1.4m14.4 1.2c-.4.2-.9.4-1.5.6-.6.2-1.2.3-1.8.3-.9 0-1.6-.1-2.3-.4-.6-.3-1.2-.7-1.6-1.2-.4-.5-.7-1-.9-1.6-.2-.6-.3-1.2-.3-1.9 0-.6.1-1.3.3-1.9s.4-1.2.8-1.6c.4-.5.8-.9 1.4-1.2.6-.3 1.2-.4 2-.4s1.5.1 2.1.4c.5.3 1 .7 1.3 1.1.3.5.6 1 .7 1.6.1.6.2 1.2.2 1.7v.9h-6.2c0 .4.1.7.2 1 .1.3.3.6.5.8.2.2.5.4.8.6.3.1.6.2 1 .2.6 0 1.2-.1 1.7-.3.5-.2 1-.4 1.6-.7v2zm-2-5.2c0-.8-.2-1.4-.5-1.8-.3-.4-.8-.6-1.4-.6-.6 0-1 .2-1.3.7-.3.4-.5 1-.6 1.8h3.8zm3.5 2.3c.2-.1.5-.2.8-.2h.4c.1 0 .3.1.4.2v.3c0 .2.1.4.2.6.1.2.3.4.6.5.2.2.5.3.8.4.3.1.6.1 1 .1.2 0 .5 0 .7-.1.2 0 .4-.1.6-.2.2-.1.3-.2.4-.3.1-.1.1-.3.1-.5s0-.4-.1-.5c-.1-.1-.2-.3-.4-.4-.2-.1-.4-.2-.7-.3-.3-.1-.7-.2-1.2-.3-.4-.1-.7-.2-1.1-.3-.4-.1-.8-.3-1.1-.5-.3-.2-.6-.5-.9-.8-.2-.3-.3-.7-.3-1.3 0-.6.1-1 .3-1.4.2-.4.5-.7.9-.9.4-.2.7-.4 1.2-.5.4-.1.8-.2 1.2-.2.6 0 1.1.1 1.5.3.4.2.7.4.9.6v-.5c.1-.1.3-.1.4-.1h.4c.3 0 .5.1.8.2v3.1c-.2.1-.5.2-.8.2-.3 0-.5-.1-.8-.2v-.3c0-.4-.2-.8-.5-1.1-.4-.3-.8-.5-1.5-.5-.6 0-1 .1-1.3.3-.3.2-.4.5-.4.8 0 .2 0 .3.1.4 0 .1.2.2.3.3.2.1.4.2.7.3.3.1.7.2 1.3.3l1.2.3c.4.1.8.3 1.1.5.3.2.6.5.8.9.2.4.3.9.3 1.5 0 .5-.1.9-.3 1.3-.2.4-.5.7-.8.9-.3.2-.7.4-1.2.5-.4.1-.9.2-1.4.2-.4 0-.7 0-.9-.1-.3 0-.5-.1-.7-.2l-.6-.3c-.2-.1-.4-.2-.6-.4v.5c-.1.1-.3.1-.4.2h-.8c-.1 0-.3-.1-.4-.2v-3.1zm14.7 1.9v-11h-1c-.1-.3-.2-.5-.2-.8 0-.3 0-.5.2-.8h3.4v12.6h1c.1.3.1.5.1.8s0 .5-.1.8h-4.5c-.1-.3-.2-.5-.2-.8s0-.5.2-.8h1.1zm5.4 0v-6.5h-1c-.1-.3-.2-.5-.2-.8s.1-.5.2-.8h3.4v8.1h1c.1.3.2.5.2.8 0 .3-.1.5-.2.8h-4.5c-.1-.3-.2-.5-.2-.8 0-.3.1-.5.2-.8h1.1zm1-9.5c-.4 0-.7-.1-1-.4-.3-.3-.4-.6-.4-1.1 0-.4.1-.8.4-1.1.3-.3.6-.4 1-.4s.7.1 1 .4c.3.3.4.6.4 1.1 0 .4-.1.8-.4 1.1-.3.3-.6.4-1 .4m3.3 3h-.8c-.1-.3-.1-.5-.1-.8 0-.3 0-.5.1-.8h4.2c.1.3.2.5.2.8s-.1.5-.2.8h-1l1.9 5.8 1.9-5.8h-1c-.1-.3-.1-.5-.1-.8s0-.5.1-.8h4c.1.3.1.5.1.8s0 .5-.1.8h-.8l-3 8.2h-2.4l-3-8.2zm17.8 7.5c-.4.2-.9.4-1.5.6-.6.2-1.2.3-1.8.3-.9 0-1.6-.1-2.3-.4-.6-.3-1.2-.7-1.6-1.2-.4-.5-.7-1-.9-1.6-.2-.6-.3-1.2-.3-1.9 0-.6.1-1.3.3-1.9.2-.6.4-1.2.8-1.6.4-.5.8-.9 1.4-1.2.6-.3 1.2-.4 2-.4s1.5.1 2.1.4c.5.3 1 .7 1.3 1.1.3.5.6 1 .7 1.6.1.6.2 1.2.2 1.7v.9h-6.2c0 .4.1.7.2 1 .1.3.3.6.5.8.2.2.5.4.8.6.3.1.6.2 1 .2.6 0 1.2-.1 1.7-.3.5-.2 1-.4 1.6-.7v2zm-2.1-5.2c0-.8-.2-1.4-.5-1.8-.3-.4-.8-.6-1.4-.6-.6 0-1 .2-1.3.7-.3.4-.5 1-.6 1.8h3.8zm3.6 2.3c.2-.1.5-.2.8-.2h.4c.1 0 .3.1.4.2v.3c0 .2.1.4.2.6.1.2.3.4.6.5.2.2.5.3.8.4.3.1.6.1 1 .1.2 0 .5 0 .7-.1.2 0 .4-.1.6-.2.2-.1.3-.2.4-.3.1-.1.1-.3.1-.5s0-.4-.1-.5c-.1-.1-.2-.3-.4-.4-.2-.1-.4-.2-.7-.3-.3-.1-.7-.2-1.2-.3-.4-.1-.7-.2-1.1-.3-.4-.1-.8-.3-1.1-.5-.3-.2-.6-.5-.9-.8-.2-.3-.3-.7-.3-1.3 0-.6.1-1 .3-1.4.2-.4.5-.7.9-.9.4-.2.7-.4 1.2-.5.4-.1.8-.2 1.2-.2.6 0 1.1.1 1.5.3.4.2.7.4.9.6v-.5c.2-.1.3-.1.4-.1h.4c.3 0 .5.1.8.2v3.1c-.2.1-.5.2-.8.2-.3 0-.5-.1-.8-.2v-.3c0-.4-.2-.8-.5-1.1-.4-.3-.8-.5-1.5-.5-.6 0-1 .1-1.3.3-.3.2-.4.5-.4.8 0 .2 0 .3.1.4 0 .1.2.2.3.3.2.1.4.2.7.3.3.1.7.2 1.3.3l1.2.3c.4.1.8.3 1.1.5.3.2.6.5.8.9.2.4.3.9.3 1.5 0 .5-.1.9-.3 1.3-.2.4-.5.7-.8.9-.3.2-.7.4-1.2.5-.4.1-.9.2-1.4.2-.4 0-.7 0-.9-.1-.3 0-.5-.1-.7-.2l-.6-.3c-.2-.1-.4-.2-.6-.4v.5c-.1.1-.3.1-.4.2h-.8c-.1 0-.3-.1-.4-.2v-3.1z" />
  </g>
</svg>